<svg xmlns="http://www.w3.org/2000/svg" viewBox="0 0 80 80" width="80" height="80" fill="none">
  
  <g stroke="#8a2415" stroke-width="1.2" stroke-linecap="round" stroke-linejoin="round">
    <path d="M 8 8 L 8 22"></path>
    <path d="M 8 8 L 22 8"></path>
    <path d="M 8 22 Q 8 30 14 32 Q 22 34 26 28 Q 30 22 28 14 Q 26 8 22 8" fill="none"></path>
    <path d="M 14 14 Q 18 12 20 16 Q 22 20 18 22 Q 14 24 14 18 Z" fill="#d4a74a" stroke="#a87b1e" stroke-width="0.7"></path>
    <circle cx="32" cy="32" r="2" fill="#8a2415" stroke="none"></circle>
    <path d="M 32 32 Q 38 32 40 36" stroke-width="0.8"></path>
    <path d="M 8 22 Q 5 25 6 30" stroke-width="0.7"></path>
    <path d="M 22 8 Q 25 5 30 6" stroke-width="0.7"></path>
  </g>
</svg>