<svg xmlns="http://www.w3.org/2000/svg" viewBox="0 0 400 30" width="400" height="30" fill="none" stroke="#8a2415" stroke-width="1.2" stroke-linecap="round">
  
  <circle cx="200" cy="15" r="6" stroke-width="1.4"></circle>
  <circle cx="200" cy="15" r="2" fill="#8a2415"></circle>
  
  <path d="M 194 15 Q 170 15 160 8 Q 150 2 140 12 Q 130 22 118 14 Q 106 6 96 16 Q 88 24 76 14 Q 64 4 50 14"></path>
  <path d="M 50 14 L 30 14 M 30 14 L 24 8 M 30 14 L 24 20" stroke-width="0.8"></path>
  
  <path d="M 206 15 Q 230 15 240 8 Q 250 2 260 12 Q 270 22 282 14 Q 294 6 304 16 Q 312 24 324 14 Q 336 4 350 14"></path>
  <path d="M 350 14 L 370 14 M 370 14 L 376 8 M 370 14 L 376 20" stroke-width="0.8"></path>
  
  <circle cx="140" cy="12" r="0.9" fill="#a87b1e" stroke="none"></circle>
  <circle cx="118" cy="14" r="0.9" fill="#a87b1e" stroke="none"></circle>
  <circle cx="96" cy="16" r="0.9" fill="#a87b1e" stroke="none"></circle>
  <circle cx="76" cy="14" r="0.9" fill="#a87b1e" stroke="none"></circle>
  <circle cx="260" cy="12" r="0.9" fill="#a87b1e" stroke="none"></circle>
  <circle cx="282" cy="14" r="0.9" fill="#a87b1e" stroke="none"></circle>
  <circle cx="304" cy="16" r="0.9" fill="#a87b1e" stroke="none"></circle>
  <circle cx="324" cy="14" r="0.9" fill="#a87b1e" stroke="none"></circle>
</svg>