<svg xmlns="http://www.w3.org/2000/svg" viewBox="0 0 24 24" width="24" height="24" fill="none" stroke="currentColor" stroke-width="1.4" stroke-linecap="round" stroke-linejoin="round">
  
  <path d="M 3 5 Q 3 4 4 4 L 11 4.5 L 11 20 L 4 19.5 Q 3 19.5 3 18.5 Z" fill="none"></path>
  <path d="M 21 5 Q 21 4 20 4 L 13 4.5 L 13 20 L 20 19.5 Q 21 19.5 21 18.5 Z" fill="none"></path>
  <line x1="11" y1="4.5" x2="13" y2="4.5"></line>
  <line x1="5" y1="8" x2="9" y2="8.3" stroke-width="0.7"></line>
  <line x1="5" y1="11" x2="9" y2="11.3" stroke-width="0.7"></line>
  <line x1="5" y1="14" x2="9" y2="14.3" stroke-width="0.7"></line>
  <line x1="15" y1="8.3" x2="19" y2="8" stroke-width="0.7"></line>
  <line x1="15" y1="11.3" x2="19" y2="11" stroke-width="0.7"></line>
  <line x1="15" y1="14.3" x2="19" y2="14" stroke-width="0.7"></line>
</svg>